<?xml version="1.0" standalone="no"?>
<!DOCTYPE svg PUBLIC "-//W3C//DTD SVG 1.1//EN" "http://www.w3.org/Graphics/SVG/1.1/DTD/svg11.dtd">
<svg width="100%" height="100%" viewBox="0 0 512 512" version="1.1" xmlns="http://www.w3.org/2000/svg" xmlns:xlink="http://www.w3.org/1999/xlink" xml:space="preserve" style="fill-rule:evenodd;clip-rule:evenodd;stroke-linecap:round;stroke-linejoin:round;stroke-miterlimit:1.41421;">
    <g id="Calque1">
        <path d="M193.822,213.164L235.672,172.927L236.586,252.427L193.822,213.164Z" style="fill:rgb(41,118,174);stroke-width:1px;stroke:rgb(41,118,174);"/>
        <path d="M14.7336,237.894L90.3406,237.894L229.069,372.584L359.474,237.894L339.358,219.037L234.918,331.077L112.694,214.538L230.963,91.0769L263.271,120.713L420.514,120.713L421.208,83L494.04,153.039L421.208,224.923L419.82,157.08L249.425,158L233.848,144.731L166.641,217.69L234.425,281.462L339.358,169.202L410.803,239.914C410.803,239.914 228.654,426.937 229.763,429.154C222.963,415.557 76.4677,276.28 76.4677,276.28L14.04,276.954L39.0111,257.424L14.7336,237.894Z" style="fill:rgb(35,170,213);stroke-width:6.25px;stroke:rgb(41,118,174);"/>
    </g>
</svg>
